<?xml version="1.0" standalone="no"?>
<!DOCTYPE svg PUBLIC "-//W3C//DTD SVG 20010904//EN"
 "http://www.w3.org/TR/2001/REC-SVG-20010904/DTD/svg10.dtd">
<svg version="1.0" xmlns="http://www.w3.org/2000/svg"
 width="576.000000pt" height="576.000000pt" viewBox="0 0 576.000000 576.000000"
 preserveAspectRatio="xMidYMid meet">
<metadata>
Created by potrace 1.10, written by Peter Selinger 2001-2011
</metadata>
<g transform="translate(0.000000,576.000000) scale(0.100000,-0.100000)"
fill="#000000" stroke="none">
<path d="M272 5695 l-1 -65 24 17 c13 10 25 25 25 34 0 9 3 31 6 48 6 29 5 31
-23 31 l-30 0 -1 -65z"/>
<path d="M358 5713 c-4 -58 1 -103 13 -103 5 0 9 6 9 13 0 8 9 22 19 31 16 15
18 21 8 37 -9 14 -9 21 1 31 21 21 14 38 -17 38 -27 0 -29 -3 -33 -47z"/>
<path d="M1490 5746 c0 -8 -6 -27 -14 -43 -32 -64 -66 -143 -82 -189 -15 -46
-99 -253 -129 -319 -31 -69 -60 -138 -105 -255 -18 -47 -38 -98 -46 -115 -7
-16 -14 -43 -16 -59 -4 -40 -47 -62 -121 -64 -32 -1 -78 -8 -102 -17 -77 -26
-395 -38 -555 -21 -74 8 -156 20 -182 27 -59 15 -73 5 -82 -59 -4 -26 -12 -59
-18 -75 -9 -23 -7 -31 7 -47 10 -11 22 -20 27 -20 5 0 19 -11 32 -25 47 -51
79 -19 46 45 -30 59 -26 98 9 80 26 -14 110 -50 116 -50 3 0 5 9 5 20 0 11 3
20 8 20 4 1 32 4 62 7 86 10 130 6 151 -13 35 -31 19 -78 -44 -134 -41 -36
-48 -75 -13 -75 17 0 71 78 105 150 5 11 28 38 50 60 37 35 46 39 94 40 49 0
52 -1 55 -27 2 -20 9 -28 22 -28 10 0 22 5 25 10 10 15 52 12 59 -5 9 -26 29
-17 89 41 39 37 68 57 85 58 15 1 34 6 42 11 18 11 87 114 96 142 7 22 32 78
51 115 7 14 13 35 13 45 0 10 4 23 8 29 4 5 18 36 31 69 12 33 26 69 31 80 4
11 11 28 14 38 7 23 12 22 74 -14 51 -29 53 -32 47 -62 -4 -18 -11 -37 -16
-42 -4 -6 -15 -33 -24 -60 -9 -28 -25 -68 -35 -90 -17 -37 -26 -60 -66 -167
-9 -24 -26 -65 -39 -93 -13 -27 -26 -67 -30 -87 -5 -32 -10 -38 -30 -38 -14 0
-25 4 -25 10 0 5 -12 20 -27 34 -30 28 -47 22 -58 -22 -3 -15 -22 -41 -42 -59
-21 -18 -33 -36 -29 -40 4 -4 14 0 21 11 25 33 38 9 31 -56 -5 -45 -3 -65 7
-82 8 -12 18 -53 22 -92 8 -78 24 -115 68 -161 30 -32 30 -33 16 -75 -7 -23
-22 -49 -31 -57 -10 -9 -18 -23 -18 -33 0 -23 -30 -99 -47 -119 -7 -8 -13 -23
-13 -33 0 -9 -7 -19 -15 -22 -19 -8 -22 -88 -3 -82 18 6 65 86 78 133 6 22 17
54 25 70 8 17 16 41 19 55 8 36 26 59 33 42 3 -7 18 -27 33 -44 26 -28 33 -30
69 -24 44 7 60 -3 87 -56 12 -24 18 -27 30 -17 9 7 33 10 65 7 46 -5 51 -3 60
18 5 14 17 24 27 24 10 0 22 3 26 7 12 13 101 13 125 0 19 -9 25 -9 28 1 10
26 21 10 16 -22 l-5 -34 39 5 c22 3 50 0 61 -6 14 -7 28 -8 39 -2 47 23 94 40
146 51 60 12 87 36 87 77 0 14 -8 24 -22 28 -35 10 -90 38 -111 57 -19 16 -18
18 15 75 19 32 41 74 50 93 45 100 54 117 71 136 18 21 18 23 -26 72 -43 48
-45 49 -63 32 -11 -10 -30 -21 -43 -25 -23 -7 -24 -6 -18 29 6 36 -6 50 -17
21 -3 -8 -12 -15 -21 -15 -20 0 -32 30 -16 40 10 5 10 17 2 46 -9 33 -20 45
-68 73 -32 19 -84 54 -115 78 -31 24 -59 43 -62 43 -4 0 -25 14 -48 30 -22 17
-45 30 -50 30 -5 0 -31 15 -59 32 -47 31 -59 53 -40 73 5 6 16 34 26 63 16 51
17 52 55 52 21 0 45 -6 52 -13 28 -27 105 -83 138 -101 19 -11 51 -32 71 -48
20 -15 42 -28 49 -28 6 0 38 -20 70 -45 32 -25 63 -45 69 -45 5 0 21 -11 35
-25 21 -21 35 -25 81 -25 31 0 65 -5 75 -10 18 -10 18 -11 -2 -60 -20 -47 -52
-70 -46 -32 2 12 -5 18 -24 20 -23 3 -28 -1 -28 -18 0 -11 8 -23 18 -27 9 -3
24 -15 33 -25 23 -29 64 -15 91 33 12 21 25 39 28 39 3 0 16 -9 28 -20 25 -23
38 -24 72 -6 21 12 25 21 25 68 1 33 8 63 18 78 9 14 17 32 17 41 0 9 7 22 15
29 8 7 15 20 15 30 0 9 11 22 25 28 17 8 25 20 25 36 0 13 8 37 17 54 18 31
12 62 -11 62 -8 0 -17 -13 -21 -30 -4 -16 -10 -30 -14 -30 -5 0 -15 -21 -23
-47 -17 -52 -45 -67 -76 -40 -20 17 -81 47 -95 47 -6 0 2 -13 17 -29 22 -23
27 -36 22 -56 -4 -14 -1 -35 5 -46 8 -15 8 -24 0 -32 -6 -6 -11 -21 -11 -34 0
-16 -6 -23 -20 -23 -12 0 -20 7 -20 17 0 13 -3 14 -12 5 -21 -21 -47 -14 -54
16 -10 47 -13 52 -28 46 -8 -3 -17 2 -20 14 -6 17 -10 18 -31 8 -14 -6 -25
-14 -25 -18 0 -5 -9 -8 -20 -8 -20 0 -24 9 -21 43 3 22 -25 22 -33 0 -6 -14
-12 -12 -39 15 -18 18 -38 32 -44 32 -6 0 -13 7 -17 15 -3 8 -14 15 -24 15
-22 0 -120 38 -142 55 -8 7 -23 15 -32 18 -10 4 -18 11 -18 17 0 5 -6 10 -14
10 -7 0 -19 7 -26 15 -7 8 -19 15 -26 15 -13 0 -54 34 -54 45 0 3 11 5 25 5
23 0 24 1 11 32 -19 45 -34 46 -42 4 -6 -34 -9 -36 -43 -36 -30 0 -40 5 -51
25 -7 14 -21 25 -30 25 -10 0 -24 7 -31 16 -11 14 -10 21 4 46 23 40 21 58 -5
58 -13 0 -38 13 -57 29 -26 21 -32 32 -27 49 11 34 47 27 94 -17 25 -23 42
-34 42 -25 0 19 46 18 54 -1 3 -8 14 -15 25 -15 10 0 21 -6 24 -14 3 -7 17
-16 31 -18 19 -4 27 0 32 14 7 22 8 21 -31 34 -18 6 -30 17 -30 27 0 18 -6 20
-31 10 -21 -8 -84 23 -84 42 0 11 -7 13 -28 9 -34 -7 -57 15 -47 45 10 31 46
38 63 12 8 -11 25 -21 38 -21 28 0 31 14 8 32 -9 7 -30 26 -46 43 l-30 29 21
17 c13 11 17 20 11 24 -17 11 -11 37 10 42 14 4 19 11 15 23 -4 12 2 24 15 33
14 10 18 20 14 32 -5 11 -1 22 9 30 26 19 1 65 -35 65 -18 0 -28 -5 -28 -14z
m-60 -861 c-22 -66 -21 -101 3 -92 17 6 47 -11 47 -27 0 -8 -7 -19 -15 -26
-13 -11 -18 -10 -31 8 -12 18 -19 20 -35 12 -23 -13 -24 -26 -4 -46 20 -21 20
-24 -19 -67 -18 -20 -41 -56 -51 -80 -9 -23 -21 -49 -25 -57 -4 -9 -11 -30
-15 -48 -3 -18 -11 -32 -16 -32 -5 0 -9 -9 -9 -20 0 -11 -6 -37 -14 -57 -27
-76 -33 -118 -21 -154 8 -21 18 -33 27 -31 9 1 21 -5 28 -13 18 -21 73 -19
100 5 22 19 22 21 6 45 -17 26 -40 33 -52 14 -4 -7 -10 -7 -16 -1 -14 14 -1
32 22 32 11 0 24 9 30 20 8 15 8 20 -3 20 -7 0 -18 -5 -24 -11 -6 -6 -21 -9
-34 -7 -22 3 -24 7 -24 65 0 44 5 66 18 80 9 11 17 34 17 51 0 18 4 32 8 32 9
0 42 64 42 82 0 16 41 58 56 58 7 0 24 14 37 30 14 17 36 34 49 40 13 5 30 15
38 21 12 9 26 5 65 -20 27 -17 65 -46 84 -66 101 -97 126 -119 145 -121 12 -1
24 -3 29 -3 11 -1 9 -69 -3 -76 -16 -10 -12 -25 7 -25 21 0 53 -29 53 -48 0
-11 8 -13 34 -8 40 8 55 -7 32 -30 -9 -8 -16 -22 -16 -30 0 -8 -9 -31 -20 -51
-11 -21 -20 -43 -20 -49 0 -6 -7 -17 -15 -24 -8 -7 -15 -23 -15 -37 0 -13 -11
-34 -24 -46 -21 -20 -22 -25 -10 -42 13 -17 14 -17 20 13 4 18 11 32 16 32 5
0 14 14 19 30 6 17 15 30 19 30 4 0 11 12 14 26 15 57 86 123 86 79 0 -8 -4
-15 -9 -15 -4 0 -16 -21 -26 -47 -9 -27 -28 -72 -42 -102 -28 -60 -26 -98 7
-131 26 -26 25 -34 -4 -48 -19 -9 -25 -8 -30 4 -7 19 -26 18 -26 -1 0 -16 -46
-39 -60 -30 -5 3 -4 20 1 38 5 17 9 43 8 57 -1 24 -1 24 -11 -5 -13 -36 -46
-75 -65 -75 -7 0 -22 -6 -33 -12 -16 -10 -22 -10 -32 4 -22 27 -97 32 -150 8
-25 -11 -48 -27 -52 -35 -6 -18 -52 -20 -62 -3 -4 6 4 21 19 34 32 27 34 54 7
79 -17 15 -20 16 -25 2 -4 -8 -15 -17 -26 -20 -35 -9 -23 32 16 55 20 11 34
23 32 27 -2 3 -11 23 -20 44 -21 45 -26 43 -110 -37 -32 -31 -62 -56 -65 -56
-14 0 -62 62 -62 80 0 15 -32 65 -51 80 -28 22 -39 100 -14 100 8 0 15 5 15
10 0 6 -9 10 -19 10 -13 0 -21 9 -26 30 -4 16 -11 32 -16 35 -14 10 -10 81 7
125 15 38 19 40 58 40 36 0 44 4 61 33 58 97 83 146 90 177 21 98 102 273 113
242 2 -7 -6 -41 -18 -77z m990 -70 c16 -19 0 -69 -23 -73 -12 -3 -17 3 -17 20
0 13 -5 29 -11 35 -6 6 -8 16 -5 22 10 16 41 14 56 -4z m-1090 -854 c16 -16
26 -31 23 -35 -21 -20 -90 22 -79 49 8 22 24 18 56 -14z"/>
<path d="M1320 4360 c0 -5 7 -10 15 -10 8 0 15 5 15 10 0 6 -7 10 -15 10 -8 0
-15 -4 -15 -10z"/>
<path d="M1767 4166 c-4 -10 -5 -21 -2 -24 9 -9 17 6 13 25 -3 17 -4 17 -11
-1z"/>
<path d="M1620 5747 c0 -14 58 -39 71 -31 5 3 9 14 9 25 0 16 -7 19 -40 19
-26 0 -40 -5 -40 -13z"/>
<path d="M2577 5754 c-8 -8 1 -24 14 -24 5 0 9 7 9 15 0 15 -12 20 -23 9z"/>
<path d="M2876 5738 c-3 -13 -6 -35 -6 -49 0 -15 -7 -29 -15 -33 -16 -6 -21
-56 -5 -56 5 0 13 12 16 27 4 15 13 34 21 41 7 7 13 22 13 32 0 10 5 22 10 25
17 11 11 35 -9 35 -11 0 -21 -9 -25 -22z"/>
<path d="M3106 5723 c-3 -21 -8 -68 -12 -104 l-6 -66 32 -7 33 -6 -6 -55 c-6
-58 -37 -115 -63 -115 -17 0 -34 39 -34 79 0 38 -20 92 -31 85 -5 -3 -9 -17
-9 -32 0 -15 -7 -37 -15 -49 -9 -13 -11 -24 -5 -28 5 -3 7 -19 4 -35 -6 -26
-2 -31 35 -49 22 -12 51 -21 63 -21 13 0 34 -7 46 -16 l22 -15 -20 -30 c-18
-25 -28 -29 -67 -29 -39 0 -44 -2 -38 -17 18 -43 15 -56 -19 -114 -20 -33 -36
-64 -36 -68 0 -14 -58 -76 -65 -69 -10 9 13 133 32 178 8 19 23 52 33 73 21
43 14 83 -17 89 -14 3 -22 -10 -39 -62 -11 -36 -27 -81 -36 -100 -8 -19 -24
-64 -35 -100 -16 -51 -25 -66 -42 -68 -34 -5 -26 -32 10 -32 29 0 31 -2 26
-27 -3 -15 2 -41 10 -56 8 -16 12 -31 10 -33 -9 -10 -77 -16 -101 -10 -32 8
-35 44 -6 69 19 16 27 37 13 37 -16 0 -63 -66 -63 -90 0 -27 -41 -76 -53 -63
-4 3 -7 -3 -7 -14 0 -12 -20 -42 -45 -67 -49 -51 -53 -61 -29 -70 16 -6 112
30 129 49 6 6 30 27 55 47 67 53 219 212 220 230 0 4 6 13 13 20 26 28 128
181 157 233 11 22 25 47 29 55 26 46 61 131 61 149 0 11 4 22 9 26 5 3 13 20
16 38 4 17 18 53 31 79 13 26 24 57 24 68 0 11 6 31 14 43 10 15 13 36 9 65
-5 36 -9 42 -29 42 -17 0 -24 -6 -24 -19 0 -11 -10 -27 -22 -35 -20 -14 -24
-14 -40 1 -17 15 -18 15 -18 -5 0 -28 -13 -34 -45 -22 -25 9 -27 14 -22 45 5
29 3 35 -13 35 -13 0 -20 -10 -24 -37z m124 -78 c0 -9 -7 -18 -15 -21 -8 -3
-17 -15 -21 -27 -6 -18 -7 -19 -16 -3 -7 12 -4 23 14 41 27 28 38 31 38 10z
m-6 -185 c-2 -76 -17 -110 -49 -110 -37 0 -41 25 -11 79 14 26 23 51 20 54
-12 12 6 38 23 35 15 -3 18 -13 17 -58z"/>
<path d="M3504 5723 c3 -21 6 -49 6 -62 0 -43 18 -10 26 47 6 49 5 52 -16 52
-21 0 -22 -3 -16 -37z"/>
<path d="M3740 5735 c0 -14 5 -25 10 -25 6 0 10 11 10 25 0 14 -4 25 -10 25
-5 0 -10 -11 -10 -25z"/>
<path d="M3900 5751 c0 -5 7 -25 15 -44 8 -20 15 -52 15 -72 0 -19 3 -35 8
-35 4 0 18 -16 31 -35 17 -25 27 -33 35 -25 16 16 24 12 31 -19 7 -34 44 -48
78 -29 29 16 145 47 179 48 14 0 39 6 55 14 62 31 105 46 131 46 15 0 47 9 70
20 l44 20 -42 40 c-23 22 -50 40 -61 40 -12 0 -19 7 -19 20 0 11 -6 20 -14 20
-14 0 -26 -41 -26 -89 0 -15 -5 -32 -12 -39 -15 -15 -53 -16 -78 -2 -19 10
-78 -4 -200 -47 -25 -8 -61 -17 -81 -20 l-37 -5 -7 63 c-4 34 -7 79 -7 101 l1
38 -55 0 c-30 0 -54 -4 -54 -9z"/>
<path d="M4626 5730 c-3 -16 -9 -43 -12 -60 -4 -16 -2 -30 3 -30 19 0 41 26
46 55 2 17 8 38 12 48 6 13 2 17 -18 17 -19 0 -26 -6 -31 -30z"/>
<path d="M4740 5742 c0 -10 14 -40 31 -66 27 -40 31 -54 26 -92 -2 -25 -12
-53 -22 -64 -10 -11 -15 -26 -11 -35 5 -14 10 -12 33 9 15 15 31 26 36 26 15
0 20 -32 6 -41 -11 -7 -10 -11 5 -22 28 -21 14 -47 -26 -47 l-32 0 22 -20 c23
-22 41 -92 25 -97 -12 -4 -8 -186 5 -209 11 -19 4 -54 -10 -54 -13 0 1 -90 18
-118 11 -16 13 -37 8 -74 -5 -38 -3 -54 7 -62 8 -6 21 -24 29 -41 24 -46 72
-53 140 -19 30 15 70 38 89 52 33 25 35 25 63 9 16 -9 44 -17 62 -17 47 0 73
-33 81 -103 7 -51 5 -61 -16 -92 -13 -19 -29 -35 -34 -35 -6 0 -34 -16 -64
-35 -29 -19 -59 -35 -66 -35 -8 0 -17 -4 -20 -10 -3 -5 -17 -10 -31 -10 -16 0
-28 -8 -35 -22 -5 -13 -20 -38 -33 -56 -28 -37 -27 -82 4 -167 45 -125 83
-253 85 -280 0 -16 8 -41 17 -55 9 -14 26 -52 37 -84 11 -33 30 -69 41 -81 11
-12 20 -35 20 -53 0 -17 4 -33 9 -37 12 -7 136 -261 166 -341 13 -33 39 -93
58 -132 20 -40 41 -88 47 -107 6 -19 28 -58 47 -87 47 -67 80 -142 89 -197 l7
-45 -31 32 c-18 18 -32 36 -32 41 0 13 -121 131 -134 131 -20 0 -80 32 -89 47
-6 10 -18 12 -39 8 -16 -4 -55 -7 -84 -6 -39 0 -57 -4 -61 -14 -3 -8 -18 -15
-33 -15 -16 0 -32 -4 -35 -10 -3 -5 -14 -10 -24 -10 -19 0 -68 -46 -59 -56 12
-11 79 9 89 27 5 11 20 19 34 19 13 0 27 5 30 10 7 12 45 13 45 2 0 -5 33 -9
74 -9 59 0 79 -4 104 -21 16 -12 29 -30 28 -39 0 -11 13 -24 34 -34 19 -10 55
-37 80 -61 51 -50 78 -121 83 -226 4 -62 12 -87 21 -61 3 8 8 59 12 114 l8
100 10 -48 c6 -27 15 -45 19 -41 10 11 9 94 -2 94 -5 0 -12 32 -16 72 -4 40
-11 79 -16 88 -4 8 -28 58 -52 110 -24 52 -56 122 -72 155 -15 33 -34 64 -42
68 -8 5 -18 18 -24 30 -5 12 -13 29 -18 37 -5 8 -17 35 -26 60 -9 25 -29 72
-44 105 -47 101 -61 135 -61 145 0 6 -13 38 -28 72 -35 77 -51 121 -63 172 -6
22 -13 44 -17 50 -17 26 -93 257 -107 323 -4 18 -11 35 -16 38 -5 4 -9 15 -9
25 0 11 -9 37 -21 59 -21 41 -19 61 7 61 8 0 34 10 57 22 61 32 150 68 168 68
23 0 54 39 67 85 34 118 39 144 31 157 -5 7 -9 23 -9 34 0 12 -7 27 -16 34 -8
8 -14 25 -12 39 2 19 -8 37 -39 69 l-43 44 -62 -7 c-35 -4 -75 -16 -90 -26
-28 -20 -53 -24 -62 -10 -3 5 -26 18 -51 30 -25 12 -48 28 -51 36 -5 11 -10
12 -24 3 -34 -21 -50 6 -50 83 0 62 2 69 20 69 15 0 20 -7 21 -27 0 -16 6 -46
13 -68 l13 -40 7 60 c6 47 3 69 -10 100 -13 30 -17 71 -18 160 -1 66 -5 126
-10 134 -5 7 -12 54 -16 105 -5 50 -14 130 -21 179 l-13 87 -68 0 c-59 0 -68
-2 -68 -18z m233 -895 c58 -16 90 -43 67 -57 -8 -5 -24 -10 -36 -10 -12 0 -35
-5 -52 -11 -39 -14 -68 1 -75 38 -4 19 -1 32 11 41 19 15 24 15 85 -1z"/>
<path d="M522 5697 c-24 -25 -28 -42 -12 -52 10 -6 43 51 38 66 -2 6 -13 0
-26 -14z"/>
<path d="M2380 5675 c13 -14 27 -25 32 -25 16 0 8 29 -11 40 -35 18 -45 11
-21 -15z"/>
<path d="M3767 5673 c-13 -12 -7 -23 11 -23 10 0 23 -5 30 -12 9 -9 12 -6 12
15 0 22 -5 27 -23 27 -13 0 -27 -3 -30 -7z"/>
<path d="M1644 5631 c21 -23 14 -41 -16 -41 -20 0 -20 -1 -3 -20 17 -19 17
-20 -8 -31 -14 -6 -28 -20 -30 -31 -4 -15 -11 -17 -33 -12 -19 5 -25 4 -20 -5
4 -6 12 -11 18 -11 12 0 46 -42 68 -84 21 -41 35 -42 46 -4 8 27 15 34 42 36
38 4 41 14 8 35 -22 15 -24 15 -29 -3 -4 -16 -14 -20 -45 -20 -37 0 -40 2 -44
30 -5 34 5 46 42 52 21 2 25 9 26 38 1 19 5 47 9 63 7 25 5 27 -20 27 -27 0
-28 -1 -11 -19z"/>
<path d="M2445 5640 c3 -5 13 -10 21 -10 8 0 14 5 14 10 0 6 -9 10 -21 10 -11
0 -17 -4 -14 -10z"/>
<path d="M1895 5597 c-4 -10 -5 -21 -1 -24 10 -10 18 4 13 24 -4 17 -4 17 -12
0z"/>
<path d="M2542 5598 c2 -6 10 -14 16 -16 7 -2 10 2 6 12 -7 18 -28 22 -22 4z"/>
<path d="M3820 5575 c0 -37 8 -43 28 -23 17 17 15 31 -8 46 -19 11 -20 10 -20
-23z"/>
<path d="M2807 5566 c-6 -15 1 -26 15 -26 11 0 10 27 -1 34 -5 3 -11 0 -14 -8z"/>
<path d="M3535 5570 c-3 -5 -1 -42 4 -82 21 -149 31 -214 41 -253 5 -22 10
-54 10 -71 0 -18 7 -45 15 -60 8 -16 15 -55 15 -89 0 -49 -4 -62 -20 -73 -27
-16 -27 -62 -1 -62 11 0 23 5 26 10 3 6 13 10 21 10 8 0 33 8 57 19 23 10 62
23 87 30 85 22 165 42 215 52 28 5 64 17 82 25 17 7 40 14 52 14 12 0 21 5 21
10 0 6 12 10 28 10 15 0 43 5 62 10 19 6 64 17 100 25 110 23 141 33 159 49
10 9 27 16 39 16 12 0 22 4 22 10 0 15 -66 23 -102 12 -18 -6 -77 -20 -131
-32 -55 -11 -112 -27 -129 -36 -16 -8 -37 -13 -45 -10 -9 4 -21 2 -27 -2 -19
-15 -105 -35 -126 -29 -13 3 -31 -3 -48 -17 -39 -31 -78 -49 -91 -41 -6 3 -9
11 -5 16 8 13 -4 59 -15 59 -5 0 -13 -17 -18 -37 -7 -30 -14 -38 -31 -38 -12
0 -22 -5 -21 -10 1 -10 -27 -23 -53 -24 -10 -1 -18 4 -18 9 0 6 7 10 15 10 12
0 14 7 9 26 -5 19 -1 29 15 40 22 16 29 44 11 44 -5 0 -10 -4 -10 -9 0 -15
-31 -21 -52 -10 -19 10 -20 9 -13 -31 6 -34 4 -41 -6 -38 -10 4 -13 22 -12 64
2 39 -4 77 -17 112 -11 29 -20 67 -20 85 0 18 -9 68 -20 112 -11 44 -20 96
-20 116 0 45 -38 86 -55 59z"/>
<path d="M3740 5520 c0 -32 4 -49 10 -45 6 3 10 24 10 45 0 21 -4 42 -10 45
-6 4 -10 -13 -10 -45z"/>
<path d="M2656 5552 c-2 -4 -2 -27 1 -50 4 -33 10 -42 25 -42 13 0 18 6 16 18
-1 9 0 22 4 27 4 6 -4 21 -17 33 -13 12 -26 19 -29 14z"/>
<path d="M217 5498 c-14 -24 -46 -68 -72 -98 -92 -106 -97 -114 -85 -145 7
-20 8 -31 0 -39 -12 -12 -13 -66 -1 -66 10 0 21 24 21 48 0 35 43 101 95 146
30 26 55 55 55 64 0 9 7 30 15 46 16 31 20 86 6 86 -5 0 -20 -19 -34 -42z"/>
<path d="M380 5514 c-6 -14 -15 -34 -20 -44 -15 -28 5 -35 30 -10 21 21 28 80
10 80 -6 0 -15 -12 -20 -26z"/>
<path d="M4440 5532 c-41 -6 -43 -18 -5 -29 37 -12 46 -7 36 17 -4 9 -16 14
-31 12z"/>
<path d="M2780 5487 c0 -12 -9 -28 -20 -35 -15 -9 -19 -19 -14 -37 4 -15 2
-25 -5 -25 -6 0 -11 -4 -11 -10 0 -5 -20 -51 -45 -102 -25 -51 -45 -104 -44
-118 1 -24 1 -24 11 5 6 17 17 37 24 46 8 8 14 21 14 27 0 7 4 12 10 12 5 0
12 12 16 28 3 15 9 36 14 47 5 11 18 41 29 67 12 26 21 50 21 53 0 4 7 13 15
21 8 9 15 22 15 30 0 8 -7 14 -15 14 -9 0 -15 -9 -15 -23z"/>
<path d="M4603 5459 c-6 -6 -31 -11 -57 -12 l-46 -2 0 -37 c0 -21 4 -38 9 -38
21 0 41 13 41 26 0 16 22 18 67 5 35 -10 47 -3 37 22 -3 9 -12 13 -21 10 -12
-5 -14 -1 -8 15 7 23 -4 29 -22 11z"/>
<path d="M2636 5435 c-4 -11 -12 -27 -17 -35 -19 -31 -65 -139 -81 -189 -7
-23 -16 -41 -20 -41 -5 0 -8 -6 -8 -13 0 -24 -51 -87 -70 -87 -23 0 -100 -39
-100 -50 0 -7 24 -20 36 -20 2 0 4 9 4 20 0 15 7 20 29 20 16 0 34 -7 41 -15
21 -25 52 -14 56 18 1 16 8 35 14 42 6 7 12 30 13 51 2 21 8 39 15 42 7 2 12
10 12 18 0 8 6 17 14 20 7 3 16 25 19 49 4 24 18 64 32 90 16 28 25 57 23 73
-4 24 -5 25 -12 7z"/>
<path d="M1904 5426 c-4 -11 0 -24 10 -34 15 -15 16 -15 16 3 0 11 -4 27 -10
35 -8 12 -10 12 -16 -4z"/>
<path d="M354 5386 c-8 -21 3 -49 16 -41 5 3 10 15 10 25 0 25 -18 36 -26 16z"/>
<path d="M1750 5365 c-7 -8 -20 -15 -30 -15 -10 0 -21 -7 -24 -16 -8 -20 10
-44 33 -44 17 0 71 61 71 79 0 16 -36 13 -50 -4z"/>
<path d="M1840 5305 c-18 -46 -16 -79 3 -83 15 -3 18 0 13 16 -6 17 -2 19 33
18 22 0 43 2 46 6 11 11 -5 28 -26 28 -10 0 -19 6 -19 14 0 7 -9 16 -21 19
-15 4 -22 -1 -29 -18z"/>
<path d="M314 5279 c-14 -15 -19 -38 -20 -85 -1 -71 11 -77 21 -9 4 24 13 46
21 49 15 6 19 52 5 60 -4 3 -17 -4 -27 -15z"/>
<path d="M3902 5263 c-13 -3 -26 -11 -29 -19 -4 -11 -14 -13 -34 -9 -27 6 -29
5 -29 -24 0 -21 -5 -31 -15 -31 -10 0 -15 -10 -15 -30 0 -37 15 -39 24 -4 4
16 12 24 21 21 7 -3 19 1 25 9 7 8 24 14 39 14 37 0 51 12 54 45 2 30 -5 35
-41 28z"/>
<path d="M385 5229 c-4 -6 -5 -13 -2 -16 7 -7 27 6 27 18 0 12 -17 12 -25 -2z"/>
<path d="M180 5219 c0 -5 -16 -27 -36 -49 -20 -21 -33 -44 -29 -50 4 -6 -1
-23 -11 -38 -29 -43 -55 -123 -57 -177 -2 -57 13 -75 26 -30 5 17 13 44 19 60
5 17 14 49 19 72 10 49 45 123 59 123 5 0 14 -9 20 -21 16 -28 34 -19 41 22 4
19 9 41 13 49 5 11 -4 20 -29 32 -19 8 -35 12 -35 7z"/>
<path d="M1970 5209 c0 -12 -8 -23 -20 -26 -26 -7 -26 -20 1 -28 26 -8 35 0
44 43 5 25 3 32 -9 32 -10 0 -16 -9 -16 -21z"/>
<path d="M1526 5184 c-4 -10 -2 -22 3 -27 7 -7 13 -5 17 7 4 10 2 22 -3 27 -7
7 -13 5 -17 -7z"/>
<path d="M1657 5183 c-15 -15 -6 -33 17 -33 14 0 31 -9 40 -21 16 -24 36 -18
36 12 0 13 7 19 21 19 11 0 17 5 14 10 -4 6 -13 7 -23 1 -19 -10 -69 -4 -78
10 -6 11 -18 12 -27 2z"/>
<path d="M2725 5149 c-4 -12 -2 -26 4 -32 8 -8 11 -2 11 21 0 37 -6 41 -15 11z"/>
<path d="M4641 5161 c-16 -10 -6 -31 14 -31 14 0 27 24 18 34 -8 8 -15 7 -32
-3z"/>
<path d="M3900 5100 c0 -5 12 -10 28 -9 24 0 25 1 7 9 -27 12 -35 12 -35 0z"/>
<path d="M2606 5093 c-3 -3 -6 -13 -6 -20 0 -8 -7 -21 -15 -29 -8 -9 -15 -22
-15 -31 0 -20 24 -11 29 12 2 10 9 25 17 33 8 7 14 17 14 22 0 12 -16 21 -24
13z"/>
<path d="M4542 5037 c-42 -44 -22 -94 35 -88 18 2 27 60 12 87 -15 30 -20 30
-47 1z"/>
<path d="M2755 5020 c-7 -12 2 -30 16 -30 5 0 9 9 9 20 0 21 -15 27 -25 10z"/>
<path d="M4644 4941 c-50 -19 -74 -39 -74 -58 0 -7 17 -30 39 -51 37 -36 38
-39 50 -145 10 -91 16 -114 41 -151 17 -24 30 -48 30 -52 0 -5 19 -30 43 -55
23 -26 50 -57 60 -69 10 -12 23 -20 29 -18 11 4 34 85 45 161 5 36 23 53 23
21 0 -29 52 -105 69 -102 13 3 16 16 16 68 -1 72 -10 120 -25 120 -5 0 -26
-11 -46 -25 -21 -14 -44 -24 -52 -23 -17 3 -50 98 -51 146 -1 38 -17 42 -32 8
-8 -17 -8 -29 0 -44 15 -28 26 -207 14 -215 -19 -12 -37 24 -41 84 -3 33 -10
64 -18 70 -8 7 -14 30 -14 55 0 24 -5 64 -12 89 -10 38 -10 50 6 81 20 43 9
64 -19 34 -22 -25 -80 -27 -89 -4 -16 42 -8 54 39 54 43 0 44 1 33 20 -15 23
-11 23 -64 1z"/>
<path d="M1578 4905 c-14 -30 5 -57 36 -53 39 6 29 78 -10 78 -8 0 -19 -11
-26 -25z"/>
<path d="M2070 4906 c0 -9 7 -16 16 -16 9 0 14 5 12 12 -6 18 -28 21 -28 4z"/>
<path d="M4087 4902 c-9 -10 -17 -25 -17 -34 0 -23 36 -50 61 -46 29 4 49 50
33 76 -16 24 -57 27 -77 4z"/>
<path d="M2607 4904 c-8 -8 1 -24 14 -24 5 0 9 7 9 15 0 15 -12 20 -23 9z"/>
<path d="M2104 4876 c-8 -22 3 -33 18 -18 9 9 9 15 0 24 -9 9 -13 7 -18 -6z"/>
<path d="M4455 4860 c-3 -5 -24 -10 -45 -10 -22 0 -54 -6 -72 -14 -133 -56
-135 -57 -135 -85 -1 -14 -4 -54 -8 -87 -7 -56 -5 -66 21 -114 36 -65 59 -83
126 -98 62 -14 102 -3 150 43 46 43 61 83 61 161 -1 59 -5 78 -27 113 -15 23
-38 46 -51 51 -30 11 -33 30 -5 30 11 0 20 5 20 10 0 6 -6 10 -14 10 -8 0 -18
-4 -21 -10z m-8 -96 c94 -72 79 -188 -34 -251 -30 -17 -53 -16 -90 2 -40 20
-60 43 -77 92 -13 38 -13 44 6 83 22 45 47 65 106 86 50 18 50 18 89 -12z"/>
<path d="M2250 4810 c-8 -5 -11 -12 -7 -16 4 -4 13 -2 19 4 15 15 7 24 -12 12z"/>
<path d="M3860 4775 c0 -2 6 -24 14 -47 17 -49 32 -142 47 -273 5 -49 14 -94
19 -99 19 -19 11 -45 -17 -52 -16 -4 -33 -10 -38 -15 -6 -4 -26 -9 -45 -11
-25 -2 -34 -7 -31 -18 9 -36 4 -154 -7 -158 -7 -2 -12 -8 -12 -13 0 -6 5 -7
10 -4 6 3 10 -3 10 -15 0 -17 5 -21 28 -18 26 3 27 4 24 60 -2 35 1 59 9 63
17 11 28 -14 22 -52 -6 -36 10 -78 34 -87 8 -3 32 4 54 17 38 21 41 21 53 5 7
-10 18 -18 24 -18 22 0 23 21 3 46 -12 15 -21 33 -21 40 0 7 -13 28 -29 47
-21 23 -27 37 -21 47 6 9 4 20 -4 30 -10 11 -11 32 -5 87 4 42 4 86 -2 105
-14 50 -11 105 6 112 21 8 46 -34 52 -86 2 -24 11 -60 20 -80 10 -24 13 -50 9
-75 -3 -21 -9 -62 -12 -90 -6 -49 -5 -53 15 -53 14 0 26 -12 38 -37 24 -51 61
-58 70 -13 9 47 30 49 70 5 l35 -38 89 6 c95 7 125 -1 201 -55 21 -15 32 -17
47 -8 22 11 71 71 71 86 0 13 -107 116 -145 139 -16 10 -44 18 -63 17 -21 -1
-45 6 -60 18 -32 26 -87 18 -120 -17 -30 -33 -47 -25 -48 22 0 42 -20 59 -36
31 -14 -25 -48 -20 -48 7 0 13 5 28 12 35 14 14 -9 45 -29 38 -10 -4 -12 1 -7
18 3 14 -1 27 -10 35 -9 8 -16 20 -16 28 0 7 -7 25 -16 39 -21 32 -14 166 10
193 19 21 21 51 3 51 -6 0 -28 -5 -47 -10 -23 -7 -50 -7 -80 -1 -64 14 -130
22 -130 16z m158 -88 c4 -20 -25 -34 -40 -19 -15 15 -1 44 19 40 10 -2 19 -11
21 -21z m115 -309 c2 -7 0 -26 -6 -41 -7 -22 -12 -25 -23 -16 -17 14 -18 41
-2 57 15 15 25 15 31 0z m33 -83 c4 -8 3 -26 0 -40 -5 -20 -13 -25 -36 -25
-24 0 -30 4 -30 22 0 42 53 77 66 43z m225 -15 c5 0 9 -7 9 -15 0 -10 -10 -15
-30 -15 -18 0 -30 5 -30 13 0 19 12 29 28 22 7 -3 18 -5 23 -5z"/>
<path d="M3786 4751 c-18 -7 -18 -8 -2 -14 27 -11 36 -8 36 8 0 16 -5 17 -34
6z"/>
<path d="M2505 4709 c-8 -25 -1 -34 20 -26 19 8 20 47 1 47 -8 0 -18 -9 -21
-21z"/>
<path d="M3628 4713 c-35 -5 -51 -26 -50 -65 1 -39 13 -50 65 -64 l42 -10 -2
-50 c-1 -27 -2 -75 -3 -107 -2 -57 -15 -83 -26 -53 -13 33 -24 14 -24 -42 0
-66 22 -97 76 -108 46 -9 59 13 40 70 -23 67 -23 151 -1 176 12 14 16 27 11
47 -17 72 -34 186 -29 199 5 14 -33 17 -99 7z"/>
<path d="M1928 4699 c-26 -14 -23 -64 4 -83 19 -14 24 -13 50 5 34 25 35 33 3
64 -27 28 -32 29 -57 14z"/>
<path d="M2035 4509 c-4 -6 -5 -13 -2 -16 7 -7 27 6 27 18 0 12 -17 12 -25 -2z"/>
<path d="M3265 4500 c-10 -11 -24 -20 -32 -20 -28 0 -11 -17 18 -18 31 -1 99
33 99 49 0 18 -67 9 -85 -11z"/>
<path d="M4560 4400 c-18 -23 -30 -44 -27 -47 8 -7 77 61 77 76 0 21 -19 10
-50 -29z"/>
<path d="M25 4420 c-15 -24 20 -86 87 -154 67 -67 88 -84 134 -105 12 -5 44
-23 71 -40 28 -17 55 -31 62 -31 19 0 12 21 -14 46 -14 13 -25 33 -25 45 0 20
3 21 43 14 23 -5 58 -8 77 -7 41 2 124 -23 139 -42 13 -15 72 -9 70 8 -3 15
11 46 33 75 20 26 24 61 8 61 -6 0 -22 -8 -36 -17 -21 -13 -30 -14 -45 -4 -22
13 -39 7 -39 -13 0 -7 -11 -22 -23 -34 -21 -20 -27 -21 -53 -9 -85 38 -120 75
-95 100 18 18 13 24 -24 23 -22 -1 -40 -9 -49 -21 -15 -20 -15 -20 -31 2 -25
35 -45 53 -60 53 -17 0 -38 -37 -32 -55 6 -15 -11 -35 -31 -35 -8 0 -20 -7
-27 -17 -11 -15 -14 -14 -33 5 -12 12 -22 26 -22 31 0 5 -7 14 -15 21 -17 14
-20 46 -4 55 5 4 18 0 27 -8 17 -15 35 -20 61 -18 28 2 -20 40 -73 57 -28 9
-56 19 -62 21 -7 2 -15 -1 -19 -7z"/>
<path d="M914 4362 c-61 -55 -70 -98 -11 -52 23 18 61 79 55 86 -2 1 -21 -14
-44 -34z"/>
<path d="M2291 4380 c-13 -11 -35 -20 -50 -20 -14 0 -33 -5 -41 -10 -13 -8
-13 -11 2 -26 39 -40 117 -4 118 54 0 26 1 26 -29 2z"/>
<path d="M3780 4333 c0 -35 3 -44 10 -33 13 20 13 67 0 75 -6 4 -10 -12 -10
-42z"/>
<path d="M937 4275 c-58 -46 -97 -57 -97 -30 0 19 -24 20 -39 2 -7 -10 -7 -17
0 -24 18 -18 1 -33 -35 -33 -38 0 -50 -8 -36 -25 13 -16 -24 -49 -73 -65 -33
-10 -41 -10 -57 5 -11 10 -24 14 -32 9 -7 -5 -47 -13 -88 -19 -55 -7 -75 -14
-75 -25 0 -12 11 -14 51 -12 30 2 55 -1 58 -7 11 -17 150 -13 209 5 81 24 115
42 177 89 60 46 120 125 120 157 0 28 -20 21 -83 -27z"/>
<path d="M2902 4273 c-7 -3 -17 -16 -22 -29 -11 -28 -40 -31 -93 -9 -20 8 -52
15 -71 15 -19 0 -47 5 -63 11 -20 8 -39 7 -68 -1 -22 -6 -51 -15 -65 -18 -21
-6 -26 -16 -32 -58 -4 -28 -14 -63 -22 -78 -8 -16 -12 -34 -9 -41 2 -8 -2 -24
-10 -37 -12 -17 -16 -57 -17 -163 -1 -77 1 -151 5 -165 3 -14 0 -43 -7 -65
-13 -38 -13 -42 13 -75 15 -19 32 -51 37 -70 9 -35 13 -37 44 -25 16 6 18 1
15 -48 -2 -57 18 -97 51 -97 7 0 26 -6 40 -14 15 -8 51 -25 80 -37 28 -12 52
-25 52 -29 0 -3 -10 -14 -21 -24 -17 -14 -26 -16 -45 -7 -19 8 -25 7 -33 -7
-12 -22 3 -95 24 -126 8 -11 15 -28 15 -37 0 -9 7 -22 15 -29 8 -7 15 -25 15
-41 0 -16 5 -29 10 -29 6 0 10 5 10 11 0 18 -30 122 -40 141 -17 31 -11 52 25
87 19 19 35 42 35 52 0 11 9 24 20 31 15 9 20 24 20 54 0 45 30 87 55 78 23
-9 21 -110 -2 -124 -15 -8 -13 -9 10 -4 20 5 34 1 48 -12 16 -14 24 -16 37 -7
22 14 82 -15 106 -52 19 -29 31 -131 16 -140 -5 -3 -6 -27 -3 -53 3 -26 0 -75
-7 -107 -7 -33 -14 -71 -16 -85 -5 -41 -22 -113 -33 -140 -11 -29 -103 -130
-118 -130 -11 0 -43 42 -66 86 -21 41 -134 157 -146 150 -14 -9 -29 16 -33 54
-3 30 -7 35 -28 35 -22 0 -25 -5 -28 -40 -2 -22 -8 -45 -13 -51 -11 -14 -1
-24 24 -24 43 0 171 -120 204 -190 11 -25 23 -61 26 -81 3 -20 17 -56 32 -79
36 -57 53 -141 36 -173 -16 -30 -16 -50 0 -155 13 -83 13 -84 40 -78 25 5 27
3 26 -27 -1 -43 37 -123 80 -168 18 -19 42 -51 52 -70 19 -36 51 -52 51 -25 0
8 -4 18 -10 21 -5 3 -10 41 -10 84 0 43 -3 81 -6 84 -9 8 -54 119 -54 131 0 5
-7 14 -15 20 -10 7 -18 34 -22 70 -5 48 -10 59 -29 67 -21 7 -24 15 -24 56 0
27 7 82 15 123 13 71 13 77 -6 113 -10 21 -19 44 -19 52 0 16 42 30 64 22 8
-3 30 -1 49 5 35 11 36 12 42 77 3 36 10 93 16 126 6 33 14 146 19 250 5 115
15 215 24 252 25 96 18 133 -25 133 -10 0 -21 10 -25 22 -8 25 -32 47 -51 48
-22 0 -14 -35 13 -61 20 -19 24 -30 20 -53 -6 -30 -23 -56 -36 -56 -4 0 -10
14 -13 30 -9 43 -39 41 -35 -2 3 -29 0 -33 -19 -31 -12 2 -49 30 -84 63 -34
33 -67 60 -75 60 -7 0 -15 4 -19 9 -9 15 13 23 32 12 10 -5 32 -11 48 -12 29
-4 30 -3 27 31 -4 37 -28 90 -46 102 -21 14 -63 8 -89 -12 -14 -11 -40 -20
-60 -20 -20 0 -39 -5 -43 -11 -4 -7 -22 -9 -50 -4 -51 7 -55 -2 -25 -51 26
-42 59 -50 71 -18 5 13 17 24 25 24 24 0 65 -46 65 -74 0 -22 -6 -26 -55 -37
-42 -9 -64 -9 -94 -1 -44 14 -50 19 -85 86 -28 52 -32 80 -17 119 11 29 -3 39
-38 30 -25 -6 -28 14 -7 55 8 16 17 80 21 159 8 142 19 177 51 157 33 -19 57
-82 60 -155 2 -37 8 -77 13 -88 6 -11 11 -27 11 -36 0 -25 -34 -14 -38 13 -5
32 -22 17 -22 -19 0 -16 -5 -38 -12 -49 -17 -26 -5 -35 34 -24 24 7 34 16 36
34 2 14 9 31 15 39 15 17 13 169 -2 184 -6 6 -11 22 -11 35 0 13 -6 38 -14 55
-8 18 -16 39 -19 48 -3 8 -23 21 -46 29 -45 14 -51 31 -25 68 12 17 25 22 59
22 57 0 105 -44 105 -96 0 -19 5 -34 10 -34 6 0 10 11 10 24 0 13 8 34 18 47
10 13 21 32 25 41 9 25 37 11 37 -18 0 -37 -36 -101 -61 -107 -23 -6 -23 -22
-2 -107 8 -32 12 -35 40 -32 29 3 33 0 42 -35 6 -21 11 -66 11 -100 0 -48 3
-63 14 -63 8 0 38 -22 66 -50 48 -47 54 -50 103 -50 77 0 177 38 177 66 0 8 9
25 21 37 11 12 23 34 26 50 6 29 14 32 42 18 32 -18 61 26 61 92 0 23 10 67
21 97 12 30 27 75 34 100 10 36 13 40 16 21 6 -38 32 -48 57 -23 18 18 20 26
11 49 -8 22 -6 32 11 54 11 16 20 30 20 33 0 3 14 25 30 49 31 47 39 87 17 87
-7 0 -29 -9 -50 -20 -44 -24 -120 -26 -157 -5 -14 8 -38 15 -55 15 -16 0 -41
7 -55 15 -19 11 -64 14 -185 14 -88 0 -166 -3 -173 -6z m321 -33 c14 -11 28
-20 32 -20 11 0 87 -62 122 -100 32 -34 44 -70 23 -70 -5 0 -18 -19 -28 -42
-11 -24 -41 -64 -68 -91 -48 -46 -48 -48 -35 -80 7 -17 13 -39 14 -47 3 -22
-44 -26 -60 -4 -11 15 -13 11 -13 -35 0 -52 -1 -53 -67 -116 -38 -36 -74 -65
-81 -65 -24 0 -71 30 -77 50 -7 23 -16 25 -34 8 -12 -11 -13 -9 -6 7 4 11 10
67 12 124 l5 104 44 51 c43 48 45 54 40 95 -3 24 -6 55 -6 68 0 20 -3 22 -19
14 -10 -6 -22 -23 -25 -38 -4 -16 -13 -41 -20 -58 -19 -41 -36 -98 -36 -118 0
-22 -36 -22 -78 -1 -40 19 -40 30 -2 94 17 28 30 59 30 68 1 9 9 35 20 57 11
22 19 46 20 53 0 17 26 15 56 -5 30 -20 39 -11 49 49 10 57 27 68 99 68 48 0
69 -5 89 -20z m-653 -65 c0 -8 -5 -15 -10 -15 -6 0 -15 -10 -20 -22 -6 -13
-14 -30 -19 -38 -5 -8 -12 -23 -15 -33 -3 -10 -10 -15 -16 -12 -21 13 -9 54
28 93 40 44 52 51 52 27z m220 -10 c16 -19 4 -35 -26 -35 -17 0 -24 6 -24 18
0 34 28 43 50 17z"/>
<path d="M3217 4145 c-28 -20 -19 -60 13 -60 22 0 25 4 25 34 0 39 -12 47 -38
26z"/>
<path d="M3114 4095 c-8 -21 4 -35 32 -35 19 0 24 5 24 25 0 20 -5 25 -25 25
-14 0 -28 -7 -31 -15z"/>
<path d="M3261 4041 c-17 -11 -7 -41 13 -41 22 0 30 20 15 36 -9 8 -19 10 -28
5z"/>
<path d="M3086 3838 c-37 -59 -22 -118 29 -118 25 0 69 34 62 48 -13 29 -26
60 -31 75 -8 24 -43 21 -60 -5z"/>
<path d="M2400 4202 c-14 -9 -41 -29 -61 -44 -20 -15 -44 -28 -52 -28 -8 0
-17 -6 -20 -12 -3 -10 -8 -10 -21 1 -26 21 -45 -2 -23 -27 19 -21 22 -42 7
-42 -5 0 -10 -12 -10 -27 l1 -28 28 33 c47 55 47 7 -1 -95 -15 -32 -26 -43
-46 -45 -23 -3 -27 -8 -30 -38 -4 -45 18 -98 55 -131 150 -140 171 -154 158
-102 -9 39 -54 130 -87 179 -15 23 -28 49 -28 58 0 13 26 63 71 136 21 35 69
138 69 149 0 7 7 25 15 41 18 35 9 43 -25 22z"/>
<path d="M4888 4113 c-47 -24 -38 -36 35 -48 34 -5 37 -4 37 18 0 25 -17 48
-34 46 -6 -1 -23 -8 -38 -16z"/>
<path d="M4683 4004 c-8 -22 16 -35 52 -28 47 10 50 16 15 30 -42 18 -59 18
-67 -2z"/>
<path d="M4960 4000 c0 -7 -7 -10 -15 -6 -8 3 -31 -2 -51 -10 -35 -15 -36 -16
-18 -35 21 -23 37 -24 54 -4 7 8 23 15 37 15 19 0 24 4 21 22 -3 22 -28 38
-28 18z"/>
<path d="M4544 3950 c-12 -5 -25 -13 -29 -19 -3 -6 -16 -11 -27 -11 -11 0 -31
-11 -44 -25 -13 -14 -26 -25 -30 -25 -14 0 -72 -73 -94 -118 -20 -40 -22 -51
-13 -96 6 -28 15 -64 21 -81 23 -67 42 -144 42 -173 0 -17 6 -43 14 -59 8 -15
21 -53 30 -83 8 -30 22 -79 30 -109 9 -29 16 -58 16 -65 0 -6 13 -38 29 -71
16 -33 36 -78 44 -100 28 -73 41 -98 66 -129 8 -10 11 -28 8 -46 -4 -17 -2
-29 3 -27 5 1 28 -16 50 -37 36 -34 48 -40 87 -40 l46 -1 1 45 c1 39 4 45 24
48 30 4 29 35 -3 76 -14 18 -25 37 -25 42 0 6 -7 19 -15 29 -44 56 -85 130
-85 152 0 14 -18 62 -39 107 -21 44 -42 95 -46 113 -3 17 -13 37 -21 44 -8 6
-14 24 -14 40 0 15 -4 30 -9 33 -15 10 -49 120 -65 211 -8 50 -20 109 -27 132
-11 35 -10 47 1 68 12 22 12 30 1 48 -12 19 -11 23 16 47 16 14 37 32 48 40
26 19 50 50 39 49 -5 0 -19 -4 -30 -9z m14 -794 c3 -12 -1 -17 -10 -14 -7 3
-15 13 -16 22 -3 12 1 17 10 14 7 -3 15 -13 16 -22z m62 -107 c0 -24 -4 -30
-17 -27 -11 2 -19 14 -21 31 -3 22 1 27 17 27 17 0 21 -6 21 -31z m50 -52 c0
-7 9 -31 19 -53 18 -36 18 -40 3 -46 -31 -12 -42 -8 -48 20 -4 15 -13 35 -21
44 -13 14 -13 19 -1 32 16 19 48 21 48 3z"/>
<path d="M4752 3920 c-27 -36 -28 -55 -2 -103 11 -20 20 -43 20 -49 0 -7 8
-23 18 -35 l17 -22 40 34 40 34 -17 28 c-28 45 -46 86 -53 116 -7 36 -35 35
-63 -3z"/>
<path d="M5024 3863 c4 -12 -11 -35 -44 -71 -28 -29 -50 -56 -50 -61 0 -13 26
-21 66 -21 35 0 46 -16 19 -26 -29 -11 -15 -24 25 -24 63 0 121 36 90 55 -16
10 -50 82 -50 105 0 21 -33 60 -51 60 -6 0 -8 -8 -5 -17z"/>
<path d="M4617 3832 c-10 -10 -17 -29 -17 -41 0 -18 5 -22 23 -19 16 2 21 9
19 25 -2 12 2 24 8 28 11 7 4 25 -9 25 -4 0 -15 -8 -24 -18z"/>
<path d="M1186 3795 l-19 -35 53 -50 c29 -27 54 -50 56 -50 2 0 4 22 4 48 0
40 -5 54 -33 85 -18 20 -35 37 -37 37 -3 0 -14 -16 -24 -35z"/>
<path d="M2787 3793 c-4 -3 -7 -17 -7 -29 0 -13 -4 -26 -10 -29 -5 -3 -10 -14
-10 -23 1 -14 2 -14 12 3 7 11 18 26 25 33 7 7 13 22 13 33 0 19 -11 25 -23
12z"/>
<path d="M1125 3684 c-8 -20 -22 -57 -30 -81 -8 -24 -27 -61 -41 -82 -28 -43
-26 -81 5 -81 10 0 30 -12 44 -26 21 -21 38 -27 82 -29 52 -2 57 0 70 26 8 15
15 33 15 38 0 15 -92 2 -106 -15 -14 -17 -25 -18 -48 -1 -15 11 -16 17 -6 39
7 14 21 29 32 31 12 3 18 12 16 23 -2 15 7 20 50 27 28 5 52 12 52 16 0 3 -18
30 -40 60 -22 29 -40 57 -40 62 0 4 -9 13 -20 19 -17 9 -21 6 -35 -26z"/>
<path d="M4260 3696 c0 -22 3 -27 11 -19 8 8 8 16 0 30 -9 16 -10 14 -11 -11z"/>
<path d="M1315 3700 c-8 -13 18 -56 44 -69 22 -12 36 0 46 41 9 34 -21 52 -37
24 -9 -16 -11 -16 -28 -1 -12 11 -20 13 -25 5z"/>
<path d="M4864 3682 c-11 -10 -23 -32 -27 -50 -6 -32 -6 -32 33 -32 22 0 40 4
40 10 0 5 19 14 42 21 40 10 41 12 23 25 -10 8 -26 14 -36 14 -9 0 -22 7 -29
15 -16 19 -20 18 -46 -3z"/>
<path d="M1797 3673 c-9 -9 -9 -65 1 -78 4 -5 16 -10 27 -10 14 0 23 -10 31
-33 6 -19 15 -37 21 -40 6 -4 13 -17 17 -29 4 -14 15 -23 27 -23 23 0 24 10 4
36 -24 32 -19 48 10 27 13 -10 25 -28 25 -40 0 -28 14 -37 30 -18 15 18 -13
116 -44 152 -19 21 -25 22 -55 13 -39 -11 -49 -7 -61 26 -9 24 -21 30 -33 17z"/>
<path d="M2017 3673 c-14 -14 -7 -43 11 -43 27 0 32 9 19 31 -13 20 -20 23
-30 12z"/>
<path d="M4730 3621 c0 -5 -9 -11 -20 -14 -16 -4 -19 -13 -18 -51 2 -48 25
-65 35 -26 3 11 11 20 19 20 21 0 24 15 11 49 -11 29 -27 42 -27 22z"/>
<path d="M5095 3603 c-22 -8 -55 -18 -73 -23 -18 -4 -38 -13 -45 -18 -7 -6
-28 -14 -47 -19 -36 -10 -52 -41 -32 -66 5 -7 13 -26 16 -44 4 -17 14 -37 22
-44 8 -6 14 -20 14 -30 0 -11 4 -19 9 -19 15 0 21 29 11 56 -13 34 -13 34 11
34 20 0 21 4 16 45 -8 75 22 91 102 55 41 -19 43 -22 37 -53 -7 -43 13 -70 51
-65 38 4 40 26 9 92 -14 30 -26 64 -26 75 0 32 -29 41 -75 24z"/>
<path d="M1400 3534 c0 -25 -4 -53 -9 -62 -7 -14 1 -26 39 -57 27 -22 49 -45
50 -52 0 -7 8 -16 17 -22 13 -7 14 -13 6 -23 -5 -7 -13 -35 -17 -63 -4 -29
-20 -73 -41 -108 -19 -32 -35 -62 -35 -66 0 -4 -9 -16 -20 -26 -11 -10 -20
-23 -20 -30 0 -6 -15 -27 -32 -47 -18 -19 -41 -52 -50 -72 -14 -27 -24 -36
-43 -36 -24 0 -25 -3 -25 -60 0 -32 -5 -82 -11 -109 -10 -48 -11 -50 -40 -44
-18 3 -29 1 -29 -6 0 -6 11 -11 25 -11 14 0 25 -3 25 -7 0 -5 -26 -36 -58 -70
-37 -41 -65 -63 -79 -63 -15 0 -28 -11 -39 -32 -9 -18 -32 -46 -50 -61 -19
-16 -34 -33 -34 -39 0 -14 -61 -82 -74 -84 -6 0 -17 -2 -23 -2 -7 -1 -13 -8
-13 -16 0 -7 -7 -19 -15 -26 -13 -11 -22 -7 -56 28 -69 73 -84 43 -19 -39 22
-28 38 -54 35 -59 -3 -4 -19 -24 -37 -44 -29 -34 -36 -36 -89 -36 -49 0 -60 3
-69 21 -9 16 -18 19 -36 15 -24 -6 -25 -5 -18 31 7 38 40 93 56 93 4 0 8 11 8
25 0 20 -5 25 -25 25 -28 0 -29 3 -14 33 17 32 31 38 50 21 14 -13 18 -13 29
1 21 26 -7 132 -43 157 -27 19 -29 19 -48 3 -10 -10 -19 -23 -19 -30 0 -6 -18
-35 -40 -65 -47 -63 -57 -106 -41 -171 10 -37 10 -51 0 -67 -11 -17 -8 -24 24
-52 21 -18 44 -48 54 -67 21 -46 57 -70 78 -53 8 7 15 19 15 27 0 12 9 14 43
9 36 -6 49 -2 85 21 23 15 42 33 42 39 0 7 16 22 35 34 19 12 44 39 56 60 14
24 36 45 60 56 22 9 39 21 39 25 0 4 8 10 18 13 26 9 110 92 166 166 27 36 54
70 60 75 50 45 104 139 86 150 -18 11 -10 44 20 78 l29 34 -27 13 c-20 9 -23
14 -12 18 8 3 31 17 50 32 19 15 57 38 84 51 61 30 134 102 164 163 13 25 28
46 33 46 15 0 10 46 -6 60 -8 7 -15 16 -15 21 0 4 -11 25 -25 45 -14 21 -28
49 -32 63 -7 30 -36 73 -75 113 -18 17 -28 38 -28 56 0 16 -7 35 -15 42 -8 7
-15 23 -15 36 0 13 -4 24 -10 24 -5 0 -10 -21 -10 -46z m128 -356 c-6 -18 -28
-21 -28 -4 0 9 7 16 16 16 9 0 14 -5 12 -12z m-958 -736 c0 -13 -49 -56 -56
-50 -9 9 27 58 42 58 8 0 14 -4 14 -8z"/>
<path d="M1270 3535 c-10 -11 -10 -19 -2 -27 15 -15 44 -2 40 19 -4 23 -22 27
-38 8z"/>
<path d="M1798 3524 c-5 -4 -8 -19 -8 -33 0 -18 3 -22 11 -14 6 6 9 21 7 33
-1 12 -6 18 -10 14z"/>
<path d="M1527 3501 c3 -12 10 -21 15 -21 13 0 6 32 -9 37 -7 3 -9 -3 -6 -16z"/>
<path d="M2160 3505 c0 -8 7 -15 15 -15 8 0 15 7 15 15 0 8 -7 15 -15 15 -8 0
-15 -7 -15 -15z"/>
<path d="M2116 3467 c-17 -12 -17 -17 -5 -43 21 -43 44 -38 44 10 0 44 -11 53
-39 33z"/>
<path d="M973 3448 c-25 -32 -73 -151 -73 -181 0 -18 -7 -42 -15 -53 -22 -29
-18 -34 25 -34 42 0 99 -29 134 -69 26 -28 38 -27 64 9 25 34 27 46 8 57 -21
13 -38 78 -30 118 5 30 2 41 -19 63 -14 15 -32 44 -41 65 -15 38 -36 47 -53
25z m68 -115 c13 -35 4 -55 -23 -51 -19 2 -24 10 -26 41 -3 32 0 37 18 37 13
0 24 -10 31 -27z"/>
<path d="M1785 3438 c-8 -21 1 -38 21 -38 18 0 18 11 0 36 -13 17 -15 18 -21
2z"/>
<path d="M5082 3418 c7 -19 38 -22 38 -4 0 10 -9 16 -21 16 -12 0 -19 -5 -17
-12z"/>
<path d="M2967 3403 c-3 -5 -2 -15 2 -22 7 -10 10 -10 16 -1 4 6 3 16 -3 22
-5 5 -12 6 -15 1z"/>
<path d="M5230 3398 c0 -7 -9 -24 -20 -38 -25 -32 -25 -35 5 -48 17 -8 25 -20
25 -37 0 -21 5 -25 30 -25 36 0 63 -36 58 -76 -5 -41 -30 -52 -63 -26 -31 25
-55 29 -55 9 0 -19 -49 -67 -68 -67 -26 0 -42 20 -42 51 0 15 -7 32 -16 40 -9
7 -14 22 -11 36 5 26 -17 31 -45 9 -19 -14 -24 -61 -8 -71 6 -3 10 -17 10 -29
0 -13 6 -29 14 -36 8 -6 16 -21 18 -33 4 -28 40 -34 70 -13 12 9 34 16 48 16
23 0 68 19 110 45 8 5 36 10 63 11 26 0 49 3 52 6 6 6 -24 68 -42 86 -7 7 -13
22 -13 33 0 11 -4 27 -10 37 -5 9 -21 43 -34 75 -22 48 -30 57 -51 57 -14 0
-25 -6 -25 -12z"/>
<path d="M1960 3375 c-14 -8 -35 -14 -46 -15 -12 0 -25 -7 -28 -16 -4 -12 -14
-14 -37 -9 -35 8 -149 -23 -156 -42 -8 -20 16 -43 43 -43 37 0 67 -36 60 -71
-3 -16 -3 -29 -1 -29 7 0 63 49 106 93 21 20 40 37 44 37 4 0 13 7 21 15 14
13 13 15 -10 15 -19 0 -26 5 -26 20 0 15 7 20 30 20 17 0 33 -7 39 -17 9 -17
11 -16 30 1 23 21 28 46 9 46 -7 0 -22 2 -33 5 -11 3 -31 -2 -45 -10z m-50
-80 c0 -30 -25 -34 -33 -6 -5 22 0 31 20 31 7 0 13 -11 13 -25z"/>
<path d="M2061 3286 c-8 -9 -11 -28 -8 -43 3 -15 1 -36 -4 -46 -7 -12 -5 -27
5 -49 9 -17 16 -39 16 -50 0 -23 51 -25 70 -3 14 17 7 70 -13 93 -6 8 -21 37
-33 64 -18 42 -22 47 -33 34z"/>
<path d="M4980 3280 c0 -5 7 -10 15 -10 8 0 15 5 15 10 0 6 -7 10 -15 10 -8 0
-15 -4 -15 -10z"/>
<path d="M745 3183 c-33 -34 -46 -75 -27 -87 4 -3 19 16 32 42 14 26 31 55 39
65 27 33 -7 18 -44 -20z"/>
<path d="M1950 3190 c-19 -16 -40 -29 -45 -30 -10 0 -40 -40 -33 -43 2 -1 13
-8 25 -14 33 -19 44 -16 38 10 -5 17 2 32 22 55 15 18 33 32 40 32 7 0 13 5
13 10 0 18 -26 10 -60 -20z"/>
<path d="M1755 3130 c-4 -6 -14 -9 -23 -8 -14 2 -18 -7 -20 -46 -3 -47 1 -63
34 -129 8 -16 14 -36 14 -45 1 -9 12 -35 25 -57 38 -63 65 -126 65 -151 0 -12
4 -25 9 -29 6 -3 21 -30 35 -60 30 -63 71 -153 80 -175 3 -8 10 -22 15 -30 5
-8 17 -33 26 -55 10 -22 22 -47 26 -55 5 -8 13 -25 19 -37 5 -13 15 -23 21
-23 11 0 11 9 -10 100 -9 44 -92 242 -110 264 -5 6 -19 36 -31 66 -13 30 -36
83 -51 118 -16 34 -29 68 -29 76 0 7 -7 27 -15 42 -8 16 -15 37 -15 46 0 9 -4
19 -9 23 -5 3 -12 18 -16 34 -3 16 -13 35 -21 42 -16 13 -19 65 -4 74 13 8 13
25 1 25 -6 0 -13 -5 -16 -10z"/>
<path d="M830 3103 c-29 -6 -90 -49 -90 -64 0 -6 9 -13 20 -16 18 -5 20 -11
14 -48 -6 -46 1 -85 17 -85 5 0 20 24 33 53 35 79 99 120 133 86 9 -9 14 -5
19 15 9 38 -1 56 -34 56 -16 0 -42 2 -58 4 -16 2 -40 2 -54 -1z"/>
<path d="M5326 3042 c-66 -22 -72 -42 -14 -42 24 0 53 -7 64 -15 21 -16 54
-20 54 -6 0 19 -21 66 -33 73 -15 9 -12 10 -71 -10z"/>
<path d="M1970 3020 c0 -24 -6 -33 -30 -42 -23 -10 -27 -16 -20 -28 8 -13 13
-13 39 3 16 9 43 17 60 17 20 0 34 7 41 19 17 32 12 41 -24 41 -19 0 -38 5
-41 10 -12 20 -25 9 -25 -20z"/>
<path d="M1140 3023 c1 -28 37 -70 50 -57 7 7 6 20 -6 42 -17 34 -44 43 -44
15z"/>
<path d="M991 2966 c-8 -10 -9 -16 -1 -21 13 -8 30 3 30 21 0 18 -14 18 -29 0z"/>
<path d="M896 2926 c-14 -19 -26 -41 -26 -49 0 -12 -13 -29 -79 -106 -12 -13
-21 -30 -21 -38 0 -7 -7 -13 -15 -13 -24 0 -20 -71 6 -93 28 -25 35 -15 19 32
-7 21 -9 44 -6 50 9 15 39 14 54 -1 10 -10 16 -7 30 12 24 34 39 61 52 90 6
14 18 38 26 54 18 38 19 96 0 96 -7 0 -25 -15 -40 -34z"/>
<path d="M1068 2929 c-19 -10 -25 -59 -8 -59 13 0 32 38 28 55 -2 10 -8 11
-20 4z"/>
<path d="M2026 2912 c-3 -5 -23 -13 -43 -17 -21 -4 -43 -11 -50 -17 -7 -5 -17
-7 -22 -4 -5 4 -13 1 -16 -5 -11 -17 30 -49 54 -42 17 4 24 0 28 -16 3 -11 12
-21 20 -21 10 0 13 6 9 16 -11 29 22 55 61 48 34 -6 34 -6 31 27 -3 30 -7 34
-35 37 -17 2 -34 -1 -37 -6z"/>
<path d="M611 2836 c-12 -18 -21 -36 -21 -40 0 -4 -17 -24 -37 -45 -29 -29
-44 -57 -63 -120 -13 -45 -28 -85 -32 -87 -4 -3 -8 -13 -8 -22 0 -28 47 37 65
90 13 41 52 118 85 168 6 8 14 25 19 37 6 11 15 24 20 28 13 8 14 25 2 25 -5
0 -19 -15 -30 -34z"/>
<path d="M2222 2844 c-19 -22 -29 -26 -57 -21 -35 6 -43 -1 -25 -19 8 -8 8
-19 0 -38 -10 -29 -6 -46 11 -46 16 0 127 78 132 92 4 13 -20 58 -32 58 -3 0
-16 -12 -29 -26z"/>
<path d="M4968 2796 c-9 -13 -20 -36 -24 -50 -5 -23 -11 -27 -30 -22 -13 4
-24 3 -25 -1 -1 -5 -2 -27 -3 -50 -1 -25 -10 -51 -22 -64 -15 -16 -19 -36 -19
-90 -1 -75 -9 -94 -31 -65 -13 18 -14 17 -14 -19 0 -25 7 -46 20 -60 13 -13
17 -28 13 -43 -5 -23 -49 -52 -76 -52 -8 0 -22 -9 -31 -19 -15 -17 -16 -24 -5
-61 11 -35 10 -57 -5 -138 -10 -53 -22 -114 -27 -135 -6 -20 -7 -64 -3 -95 5
-51 -8 -160 -23 -185 -3 -5 -14 -1 -24 9 -17 15 -19 15 -19 1 0 -9 4 -27 10
-41 5 -14 5 -28 1 -31 -5 -2 -11 4 -14 15 -8 30 -27 24 -34 -10 -3 -17 -10
-33 -14 -36 -12 -7 -11 -91 1 -99 6 -3 10 -23 10 -43 0 -59 15 -72 34 -28 8
20 18 53 22 73 4 21 17 58 30 83 36 73 74 172 74 194 0 25 9 37 34 51 11 7 25
33 33 65 8 30 18 59 23 64 18 18 11 80 -9 98 -19 16 -19 19 -4 58 13 32 20 39
35 34 15 -4 18 0 18 27 0 18 7 62 16 97 12 47 13 67 5 75 -16 16 -14 59 6 103
11 28 17 74 19 158 l2 118 41 36 c33 28 41 42 41 69 0 39 -9 41 -32 9z m-359
-1273 c0 -10 -4 -27 -8 -37 -6 -17 -8 -17 -14 -4 -7 20 2 58 14 58 5 0 9 -8 8
-17z"/>
<path d="M685 2764 c-21 -21 -16 -78 6 -82 22 -4 43 52 28 79 -12 23 -13 23
-34 3z"/>
<path d="M1950 2755 c0 -8 5 -15 10 -15 6 0 10 7 10 15 0 8 -4 15 -10 15 -5 0
-10 -7 -10 -15z"/>
<path d="M2500 2760 c0 -5 7 -10 15 -10 8 0 15 5 15 10 0 6 -7 10 -15 10 -8 0
-15 -4 -15 -10z"/>
<path d="M950 2720 c-7 -17 -20 -36 -29 -43 -30 -21 -31 -34 -5 -52 29 -19 43
-13 25 9 -10 12 -9 20 4 40 10 14 21 26 26 26 5 0 9 11 9 25 0 34 -15 31 -30
-5z"/>
<path d="M2377 2743 c-21 -21 12 -37 48 -23 14 5 25 14 25 20 0 11 -63 14 -73
3z"/>
<path d="M2287 2717 c3 -15 -4 -32 -23 -50 -31 -31 -14 -37 18 -7 12 11 29 20
39 20 9 0 22 7 29 15 10 13 7 17 -23 30 -46 19 -45 19 -40 -8z"/>
<path d="M1975 2688 c4 -18 11 -37 16 -42 5 -6 9 -23 9 -38 0 -34 6 -35 30 -6
17 21 17 23 -12 70 -35 56 -53 63 -43 16z"/>
<path d="M5423 2693 c-7 -17 23 -46 42 -40 21 7 15 34 -10 45 -22 10 -27 9
-32 -5z"/>
<path d="M5364 2623 c-18 -56 -37 -98 -59 -133 -24 -38 -36 -120 -17 -120 12
0 107 111 114 134 11 36 9 111 -4 124 -17 17 -28 15 -34 -5z"/>
<path d="M5485 2620 c-3 -5 -1 -19 5 -31 6 -11 9 -28 6 -36 -15 -39 19 -72 55
-53 27 15 24 49 -6 60 -27 10 -31 20 -14 37 6 6 8 16 5 22 -9 14 -43 14 -51 1z"/>
<path d="M678 2593 c-10 -11 -18 -24 -18 -30 0 -6 -7 -16 -15 -23 -8 -7 -15
-16 -15 -21 0 -15 18 -10 45 14 20 16 26 30 23 51 -3 28 -3 28 -20 9z"/>
<path d="M2063 2554 c-3 -9 -1 -24 5 -33 7 -9 17 -27 22 -40 14 -31 29 -17 37
33 4 27 2 41 -8 47 -22 14 -49 10 -56 -7z"/>
<path d="M2185 2540 c-8 -27 10 -49 26 -33 13 13 8 45 -8 50 -6 2 -14 -6 -18
-17z"/>
<path d="M2324 2546 c-6 -17 12 -56 26 -56 6 0 10 -7 10 -15 0 -9 7 -18 15
-21 21 -9 19 -47 -5 -67 -23 -19 -24 -34 -8 -91 15 -54 22 -60 66 -61 27 0 38
-5 40 -18 2 -10 19 -45 38 -78 37 -66 42 -96 20 -105 -19 -7 -19 -79 0 -95 8
-6 14 -19 14 -29 0 -10 7 -23 16 -30 43 -37 36 -86 -13 -92 -22 -2 -29 -9 -31
-30 -4 -36 16 -37 48 -3 14 15 30 23 41 20 11 -4 20 4 29 26 11 26 17 30 42
27 16 -3 27 -2 25 1 -2 3 -9 21 -16 39 -14 34 -17 35 -67 32 -24 -1 -37 6 -53
26 -30 38 -24 74 14 94 17 8 32 16 33 17 2 1 -12 30 -31 65 -20 35 -43 86 -52
113 -9 28 -31 66 -49 85 -38 43 -66 92 -66 117 0 10 -13 34 -30 53 -16 19 -29
45 -30 57 0 27 -18 40 -26 19z"/>
<path d="M723 2542 c-25 -4 -27 -10 -14 -31 7 -10 13 -11 30 -2 36 19 25 40
-16 33z"/>
<path d="M803 2504 c-8 -20 8 -48 31 -52 11 -3 16 4 16 20 0 40 -35 63 -47 32z"/>
<path d="M2155 2450 c-4 -22 -11 -42 -15 -45 -5 -3 -12 -30 -15 -59 -5 -40 -3
-63 8 -86 12 -23 13 -38 7 -56 -13 -33 -13 -101 0 -109 6 -3 10 -15 10 -25 0
-10 6 -25 13 -32 6 -7 21 -31 31 -53 10 -22 23 -47 28 -55 4 -8 11 -22 15 -30
3 -8 12 -19 20 -23 7 -4 13 -13 13 -19 0 -13 32 -79 61 -123 10 -16 23 -40 28
-52 5 -11 15 -24 21 -28 11 -7 7 -76 -7 -112 -5 -11 -1 -14 13 -9 16 5 24 -4
42 -43 12 -27 22 -52 22 -56 0 -3 11 -21 25 -39 14 -18 25 -41 25 -52 0 -25
152 -232 229 -310 42 -44 81 -72 136 -98 86 -41 100 -43 149 -20 48 23 66 14
66 -36 0 -35 3 -40 23 -40 13 0 41 16 63 35 21 20 65 52 97 72 33 21 60 47 63
59 7 27 -11 64 -31 64 -8 0 -15 9 -15 20 0 11 -4 20 -10 20 -5 0 -10 -15 -10
-33 0 -30 -21 -73 -43 -89 -6 -3 -35 -9 -65 -13 -31 -4 -65 -13 -76 -20 -24
-16 -133 -6 -144 12 -4 6 -17 13 -29 17 -13 4 -23 12 -23 17 0 5 -5 9 -11 9
-20 0 -129 106 -129 125 0 7 -11 22 -25 35 -14 13 -25 29 -25 36 0 7 -6 17
-12 21 -7 4 -21 24 -31 43 -10 19 -35 54 -57 78 -22 24 -50 62 -61 85 -12 23
-28 50 -37 59 -8 10 -29 60 -47 111 -17 52 -46 117 -63 146 -18 28 -32 54 -32
57 0 7 -94 164 -128 214 -21 31 -23 43 -19 102 3 37 2 70 -3 73 -16 10 -30
135 -24 215 5 54 3 80 -4 80 -5 0 -13 -18 -17 -40z"/>
<path d="M5155 2480 c-6 -10 24 -59 38 -60 12 0 8 45 -5 58 -15 15 -25 15 -33
2z"/>
<path d="M2246 2444 c-10 -25 4 -37 20 -17 17 23 17 33 0 33 -8 0 -17 -7 -20
-16z"/>
<path d="M5420 2435 c0 -15 6 -25 14 -25 8 0 24 -8 37 -19 21 -16 22 -22 11
-45 -6 -15 -20 -26 -31 -26 -10 0 -26 -11 -35 -25 -18 -27 -22 -85 -6 -85 16
0 12 -18 -14 -58 -23 -35 -43 -152 -26 -152 4 0 15 19 25 43 9 23 23 54 31 69
8 14 14 35 14 46 0 12 5 24 10 27 6 4 8 15 5 26 -4 10 -2 19 3 19 13 0 82 104
82 124 0 32 -19 54 -54 60 -22 4 -37 14 -41 26 -9 28 -25 25 -25 -5z"/>
<path d="M365 2422 c-44 -21 -83 -60 -123 -122 -19 -30 -49 -73 -66 -95 -38
-49 -82 -138 -94 -193 -12 -53 1 -188 20 -210 9 -9 23 -32 32 -50 29 -57 124
-135 176 -146 81 -17 151 -18 184 -2 19 9 36 16 40 16 9 0 100 62 119 81 9 10
17 23 17 29 0 5 4 10 9 10 17 0 52 71 41 85 -12 15 -3 26 16 18 17 -6 53 34
54 60 0 9 7 17 15 17 8 0 15 9 15 19 0 10 7 21 15 25 9 3 15 19 15 41 0 19 -2
35 -4 35 -2 0 -23 -19 -48 -42 -25 -24 -61 -56 -81 -73 -20 -16 -36 -37 -37
-46 0 -23 -48 -82 -112 -138 -57 -49 -59 -50 -115 -47 -31 2 -69 -2 -84 -8
-20 -7 -34 -7 -51 2 -13 6 -39 17 -58 25 -88 35 -148 153 -130 259 12 78 45
154 89 207 22 25 58 78 81 116 23 39 56 85 73 102 36 38 34 45 -8 25z"/>
<path d="M3050 2363 c0 -38 -1 -92 -3 -122 -1 -35 2 -56 10 -58 18 -6 32 28
39 101 5 53 3 74 -11 106 -10 22 -22 40 -27 40 -4 0 -8 -30 -8 -67z"/>
<path d="M4778 2384 c-5 -4 -8 -16 -8 -28 0 -14 3 -17 11 -9 6 6 9 19 7 28 -1
9 -6 13 -10 9z"/>
<path d="M2617 2353 c-13 -12 -7 -23 13 -23 11 0 20 7 20 15 0 15 -21 21 -33
8z"/>
<path d="M5684 2313 c-12 -57 -14 -60 -30 -39 -13 19 -14 18 -14 -11 0 -17 -8
-37 -20 -48 -16 -14 -19 -26 -14 -52 5 -25 3 -33 -9 -33 -8 0 -17 -8 -21 -17
-3 -10 -10 -25 -15 -33 -5 -8 -13 -26 -19 -40 -5 -14 -18 -45 -29 -70 -11 -25
-32 -83 -47 -130 -15 -47 -32 -93 -37 -102 -5 -10 -9 -30 -9 -45 -1 -16 -7
-39 -15 -53 -8 -14 -14 -36 -15 -49 0 -13 -15 -44 -34 -70 -23 -32 -39 -71
-52 -126 -21 -92 -42 -135 -56 -112 -4 9 -12 42 -18 74 -16 100 -22 123 -30
123 -12 0 -41 -79 -46 -125 -3 -22 -9 -54 -15 -71 -5 -18 -7 -44 -3 -58 5 -20
2 -26 -10 -26 -9 0 -20 -8 -23 -17 -14 -38 -47 -63 -84 -63 -20 0 -42 -7 -49
-15 -7 -8 -18 -15 -24 -14 -42 5 -48 0 -41 -37 6 -34 5 -36 -17 -32 -21 4 -23
1 -23 -41 l0 -45 45 -9 c57 -10 126 -3 165 17 17 9 38 16 47 16 20 0 108 86
108 106 0 8 4 14 9 14 15 0 77 102 84 137 4 22 2 33 -8 37 -17 6 -20 46 -4 46
6 0 13 -9 16 -20 6 -24 23 -16 23 11 0 11 6 22 14 25 8 3 18 20 22 37 3 18 12
40 20 51 7 10 10 24 8 31 -3 7 4 30 15 51 12 21 21 44 21 51 0 7 4 13 10 13 5
0 12 16 16 35 3 19 10 35 15 35 5 0 9 12 9 28 0 15 7 40 15 56 8 16 18 46 21
67 4 21 13 44 20 50 8 6 14 22 14 35 0 12 4 25 9 28 5 4 12 24 16 46 4 23 20
65 36 95 16 30 29 63 29 74 0 11 4 22 9 26 5 3 13 30 16 60 4 31 11 58 16 61
12 7 11 81 -1 89 -5 3 -12 -7 -16 -22z m-124 -358 c0 -8 -4 -15 -10 -15 -5 0
-10 7 -10 15 0 8 5 15 10 15 6 0 10 -7 10 -15z m-262 -758 c3 -22 -1 -27 -18
-27 -16 0 -20 4 -16 16 3 9 6 22 6 31 0 25 25 8 28 -20z m-218 -106 c0 -12
-29 -23 -41 -15 -5 3 -7 10 -4 15 8 12 45 12 45 0z m-70 -47 c12 -12 12 -14
-7 -14 -32 0 -53 10 -53 27 0 17 36 9 60 -13z"/>
<path d="M5257 2323 c-4 -3 -7 -15 -7 -25 0 -10 -9 -35 -20 -55 -27 -51 -26
-65 7 -61 26 3 27 5 31 76 3 71 2 78 -11 65z"/>
<path d="M2223 2255 c11 -109 100 -252 180 -291 28 -13 54 -24 59 -24 12 0 10
38 -2 45 -5 3 -10 14 -10 22 0 22 -42 83 -56 83 -14 0 -91 86 -111 125 -9 17
-19 43 -23 60 -3 18 -13 31 -24 33 -17 4 -18 -1 -13 -53z"/>
<path d="M5040 2255 c0 -18 5 -25 20 -25 24 0 28 35 4 44 -23 9 -24 8 -24 -19z"/>
<path d="M584 2155 c-7 -18 3 -35 21 -35 18 0 26 15 19 34 -8 20 -33 21 -40 1z"/>
<path d="M2740 2137 c0 -8 9 -22 20 -32 11 -10 20 -23 20 -30 0 -6 7 -20 15
-31 14 -18 14 -17 15 13 0 20 -10 43 -26 62 -27 33 -44 40 -44 18z"/>
<path d="M4680 2125 c0 -15 4 -24 10 -20 6 3 10 12 10 20 0 8 -4 17 -10 20 -6
4 -10 -5 -10 -20z"/>
<path d="M803 2103 c-4 -10 -11 -21 -17 -25 -15 -10 -2 -20 18 -12 9 3 16 17
16 30 0 28 -8 31 -17 7z"/>
<path d="M5185 2048 c-13 -41 -24 -92 -20 -99 3 -4 14 -5 25 -2 11 3 32 -2 46
-12 42 -27 54 -14 54 61 0 67 0 67 -20 49 -20 -18 -22 -18 -50 -1 -24 13 -31
14 -35 4z"/>
<path d="M2760 1980 c0 -12 8 -12 35 0 18 8 17 9 -7 9 -16 1 -28 -3 -28 -9z"/>
<path d="M4997 1943 c-11 -10 -8 -41 4 -49 16 -9 43 21 36 40 -7 16 -28 21
-40 9z"/>
<path d="M2765 1900 c-4 -6 8 -10 29 -10 20 0 36 5 36 10 0 6 -13 10 -29 10
-17 0 -33 -4 -36 -10z"/>
<path d="M5127 1903 c-4 -3 -7 -42 -7 -85 0 -59 3 -78 14 -78 14 0 26 60 26
131 0 37 -15 51 -33 32z"/>
<path d="M2841 1846 c-26 -31 14 -71 45 -45 8 7 14 22 12 33 -4 26 -40 33 -57
12z"/>
<path d="M5208 1833 c0 -5 -2 -30 -2 -57 -1 -30 -6 -51 -14 -54 -14 -4 -16
-68 -2 -77 6 -4 10 9 10 33 0 21 3 42 7 46 10 10 32 99 26 108 -6 10 -23 10
-25 1z"/>
<path d="M2717 1793 c-16 -15 -6 -63 18 -88 14 -14 28 -25 30 -25 10 0 5 39
-6 46 -6 3 -8 16 -5 27 8 30 -19 59 -37 40z"/>
<path d="M2927 1726 c-4 -9 3 -16 20 -21 33 -8 43 3 19 21 -25 18 -32 18 -39
0z"/>
<path d="M3192 1696 c-15 -40 -15 -66 -2 -66 6 0 10 -9 10 -20 0 -17 29 -69
50 -90 12 -12 40 -73 40 -88 0 -8 8 -24 17 -34 22 -25 22 -136 0 -223 -10 -37
-11 -53 -4 -42 7 10 20 28 30 39 12 15 17 40 18 92 1 39 4 85 8 101 6 27 8 25
16 -25 5 -30 8 -81 8 -112 0 -32 3 -58 8 -58 5 0 9 11 9 24 0 13 7 26 15 30
18 7 21 86 4 103 -7 7 -13 24 -15 40 -1 15 -8 29 -13 31 -6 2 -11 14 -11 27 0
13 -6 30 -14 37 -7 8 -17 25 -21 38 -4 13 -17 33 -29 44 -12 12 -27 32 -34 46
-21 42 -39 71 -51 83 -6 6 -11 19 -11 28 0 32 -16 29 -28 -5z"/>
<path d="M4933 1709 c-27 -10 -31 -47 -7 -56 17 -6 45 6 51 23 2 5 -2 17 -9
26 -10 12 -19 14 -35 7z"/>
<path d="M2657 1673 c23 -56 31 -75 38 -100 8 -30 23 -29 34 0 6 16 4 39 -6
70 -13 39 -20 47 -39 47 -13 0 -24 5 -24 10 0 6 -4 10 -10 10 -5 0 -2 -17 7
-37z"/>
<path d="M3086 1684 c-9 -8 -16 -18 -16 -20 0 -15 24 -45 50 -64 l31 -22 -7
44 c-12 75 -28 93 -58 62z"/>
<path d="M5067 1664 c-4 -4 -7 -29 -7 -56 0 -42 3 -48 20 -48 28 0 35 24 20
63 -16 39 -24 49 -33 41z"/>
<path d="M2977 1598 c-2 -29 -8 -63 -12 -75 -6 -19 -4 -23 12 -23 18 0 83 52
83 66 0 16 -53 84 -65 84 -9 0 -15 -19 -18 -52z"/>
<path d="M2814 1545 c-3 -20 -15 -40 -26 -46 -40 -21 -111 -98 -105 -113 9
-23 60 -20 75 4 8 14 23 20 47 20 40 0 85 25 85 47 0 8 -7 21 -16 30 -8 9 -14
27 -14 42 3 44 1 51 -20 51 -14 0 -21 -9 -26 -35z"/>
<path d="M5150 1567 c0 -16 53 -57 75 -57 8 0 15 7 15 15 0 10 -10 15 -29 15
-20 0 -30 6 -34 20 -6 22 -27 28 -27 7z"/>
<path d="M4740 1544 c0 -5 -13 -24 -30 -42 -32 -35 -53 -112 -31 -112 13 0 51
81 51 109 0 9 5 22 12 29 6 6 9 15 5 19 -4 3 -7 2 -7 -3z"/>
<path d="M3165 1530 c-3 -5 -1 -20 6 -32 6 -12 22 -56 35 -97 28 -89 31 -172
8 -191 -22 -19 -15 -75 10 -75 48 0 60 222 16 306 -11 23 -27 48 -35 56 -8 8
-15 21 -15 29 0 16 -16 19 -25 4z"/>
<path d="M3110 1459 c0 -11 5 -17 10 -14 6 3 10 13 10 21 0 8 -4 14 -10 14 -5
0 -10 -9 -10 -21z"/>
<path d="M4310 1467 c-14 -7 -41 -23 -60 -37 -19 -14 -50 -33 -69 -43 -45 -24
-234 -165 -293 -217 -45 -40 -118 -155 -118 -185 0 -8 -10 -26 -23 -41 l-23
-27 -22 37 c-12 21 -22 41 -22 45 0 5 -6 14 -14 20 -7 6 -16 24 -19 40 -8 39
-60 88 -106 101 -29 7 -50 6 -89 -5 -47 -14 -52 -18 -52 -45 0 -36 21 -40 52
-10 46 42 90 20 148 -75 13 -22 42 -64 64 -93 21 -29 50 -74 63 -100 41 -81
54 -102 63 -102 4 0 10 46 12 103 3 92 6 108 36 168 43 85 99 148 187 209 210
147 308 209 335 215 27 6 35 2 65 -31 19 -21 37 -46 41 -56 3 -10 14 -18 25
-18 28 0 25 45 -6 72 -14 12 -25 27 -25 34 0 7 -10 22 -22 34 -25 23 -86 26
-128 7z"/>
<path d="M4677 1353 c-11 -10 -8 -73 3 -73 6 0 10 11 10 24 0 13 3 31 6 40 6
16 -7 22 -19 9z"/>
<path d="M2936 1321 c-5 -7 -3 -18 3 -24 14 -14 20 -6 11 17 -5 15 -9 16 -14
7z"/>
<path d="M4980 1300 c0 -11 5 -20 10 -20 6 0 10 9 10 20 0 11 -4 20 -10 20 -5
0 -10 -9 -10 -20z"/>
<path d="M4547 1272 c-10 -10 -17 -23 -17 -29 0 -14 26 -71 50 -108 10 -16 33
-58 51 -93 34 -69 47 -79 78 -62 31 16 26 44 -15 87 -40 42 -70 103 -85 175
-12 53 -33 63 -62 30z"/>
<path d="M2780 1167 c0 -22 6 -37 15 -41 8 -3 15 -12 15 -20 0 -38 130 -116
193 -116 69 0 140 41 122 70 -8 13 -43 3 -67 -17 -43 -38 -189 43 -232 129 -6
12 -19 24 -29 26 -13 3 -17 -4 -17 -31z"/>
<path d="M4705 880 c-3 -6 -1 -25 6 -44 10 -28 9 -40 -3 -72 -9 -22 -24 -44
-34 -49 -34 -19 -79 -50 -99 -68 -57 -50 -103 -87 -110 -87 -4 0 -25 -14 -48
-32 -91 -73 -157 -92 -303 -91 -72 0 -110 5 -130 16 -16 8 -37 18 -47 21 -9 3
-27 21 -38 41 -12 19 -24 35 -29 35 -4 0 -7 -31 -7 -69 0 -51 -6 -80 -22 -110
-11 -23 -21 -47 -21 -53 0 -23 -181 -218 -203 -218 -9 0 -56 -51 -57 -62 0
-13 79 -9 103 5 87 48 213 208 233 296 17 70 26 79 67 62 17 -7 70 -22 116
-34 82 -20 87 -20 150 -4 37 10 76 17 88 17 12 0 24 4 27 9 3 4 18 11 33 14
16 3 39 15 53 27 14 12 36 30 50 38 14 9 48 35 75 58 28 22 57 44 65 48 56 26
182 120 208 155 26 35 27 49 7 70 -43 48 -52 59 -58 75 -6 14 -10 16 -21 7
-10 -8 -16 -9 -21 -1 -8 13 -22 13 -30 0z"/>
<path d="M3030 821 c0 -5 -21 -22 -46 -38 -31 -19 -53 -43 -70 -76 -23 -44
-24 -50 -10 -80 8 -18 18 -43 22 -57 3 -14 19 -41 35 -61 30 -38 99 -167 99
-185 0 -6 11 -28 25 -48 14 -20 25 -43 25 -50 0 -16 123 -146 139 -146 6 0 11
-4 11 -9 0 -13 82 -41 123 -41 46 0 47 11 5 32 -18 9 -53 33 -78 55 -25 22
-59 45 -76 52 -22 9 -34 21 -37 41 -4 15 -18 40 -32 55 -14 16 -25 36 -25 45
0 24 -54 133 -100 200 -56 84 -67 119 -50 172 8 24 31 64 52 89 21 25 38 48
38 52 0 4 -11 7 -25 7 -14 0 -25 -4 -25 -9z"/>
</g>
</svg>
